<?xml version="1.0" encoding="UTF-8" standalone="no"?>
<svg width="4px" height="18px" viewBox="0 0 4 18" version="1.1" xmlns="http://www.w3.org/2000/svg" xmlns:xlink="http://www.w3.org/1999/xlink">
    <!-- Generator: Sketch 46.2 (44496) - http://www.bohemiancoding.com/sketch -->
    <title>right-arrow copy</title>
    <desc>Created with Sketch.</desc>
    <defs></defs>
    <g id="Scenarios-for-InVision" stroke="none" stroke-width="1" fill="none" fill-rule="evenodd">
        <g id="svgs-" transform="translate(-791.000000, -99.000000)" fill-rule="nonzero" fill="#465151">
            <g id="right-arrow-copy" transform="translate(791.000000, 99.000000)">
                <g id="settings_icon" transform="translate(2.000000, 9.000000) rotate(90.000000) translate(-2.000000, -9.000000) translate(-7.000000, 7.000000)">
                    <path d="M15.9333333,0 C14.8305833,0 13.9333333,0.885444079 13.9333333,1.97368421 C13.9333333,3.06192434 14.8305833,3.94736842 15.9333333,3.94736842 C17.0360833,3.94736842 17.9333333,3.06192434 17.9333333,1.97368421 C17.9333333,0.885444079 17.0360833,0 15.9333333,0 Z" id="Shape"></path>
                    <path d="M8.96666667,0 C7.86391667,0 6.96666667,0.885444079 6.96666667,1.97368421 C6.96666667,3.06192434 7.86391667,3.94736842 8.96666667,3.94736842 C10.0694167,3.94736842 10.9666667,3.06192434 10.9666667,1.97368421 C10.9666667,0.885444079 10.0694167,0 8.96666667,0 Z" id="Shape"></path>
                    <path d="M2,0 C0.89725,0 0,0.885444079 0,1.97368421 C0,3.06192434 0.89725,3.94736842 2,3.94736842 C3.10275,3.94736842 4,3.06192434 4,1.97368421 C4,0.885444079 3.10275,0 2,0 Z" id="Shape"></path>
                </g>
            </g>
        </g>
    </g>
</svg>