<?xml version="1.0" encoding="UTF-8" standalone="no"?>
<svg width="24px" height="18px" viewBox="0 0 24 18" version="1.1" xmlns="http://www.w3.org/2000/svg" xmlns:xlink="http://www.w3.org/1999/xlink">
    <!-- Generator: Sketch 45.1 (43504) - http://www.bohemiancoding.com/sketch -->
    <title>right-arrow</title>
    <desc>Created with Sketch.</desc>
    <defs></defs>
    <g id="Credit-Card" stroke="none" stroke-width="1" fill="none" fill-rule="evenodd">
        <g id="Artboard-4" transform="translate(-633.000000, -150.000000)" fill-rule="nonzero" fill="#4D4841">
            <g id="credit_card_illustration_front" transform="translate(103.000000, 117.000000)">
                <g id="right-arrow" transform="translate(530.000000, 33.000000)">
                    <path d="M15.90375,0.75525 C15.582,0.42225 15.0465,0.42225 14.7135,0.75525 C14.39175,1.077 14.39175,1.6125 14.7135,1.9335 L20.74875,7.96875 L0.83325,7.96875 C0.369,7.9695 0,8.3385 0,8.80275 C0,9.267 0.369,9.648 0.83325,9.648 L20.74875,9.648 L14.7135,15.672 C14.39175,16.005 14.39175,16.54125 14.7135,16.86225 C15.0465,17.19525 15.58275,17.19525 15.90375,16.86225 L23.36775,9.39825 C23.70075,9.0765 23.70075,8.541 23.36775,8.22 L15.90375,0.75525 Z" id="Shape"></path>
                </g>
            </g>
        </g>
    </g>
</svg>